<svg width="256" height="256" viewBox="0 0 256 256" fill="none" xmlns="http://www.w3.org/2000/svg">
  <path d="M16.4588 96.7273H19.6861L26.1406 107.591H26.4134L32.8679 96.7273H36.0952L27.6861 110.409V120H24.8679V110.409L16.4588 96.7273ZM43.9986 120.364C42.4228 120.364 41.0402 119.989 39.8509 119.239C38.669 118.489 37.7448 117.439 37.0781 116.091C36.419 114.742 36.0895 113.167 36.0895 111.364C36.0895 109.545 36.419 107.958 37.0781 106.602C37.7448 105.246 38.669 104.193 39.8509 103.443C41.0402 102.693 42.4228 102.318 43.9986 102.318C45.5743 102.318 46.9531 102.693 48.1349 103.443C49.3243 104.193 50.2486 105.246 50.9077 106.602C51.5743 107.958 51.9077 109.545 51.9077 111.364C51.9077 113.167 51.5743 114.742 50.9077 116.091C50.2486 117.439 49.3243 118.489 48.1349 119.239C46.9531 119.989 45.5743 120.364 43.9986 120.364ZM43.9986 117.955C45.1955 117.955 46.1804 117.648 46.9531 117.034C47.7259 116.42 48.2978 115.614 48.669 114.614C49.0402 113.614 49.2259 112.53 49.2259 111.364C49.2259 110.197 49.0402 109.11 48.669 108.102C48.2978 107.095 47.7259 106.28 46.9531 105.659C46.1804 105.038 45.1955 104.727 43.9986 104.727C42.8016 104.727 41.8168 105.038 41.044 105.659C40.2713 106.28 39.6993 107.095 39.3281 108.102C38.9569 109.11 38.7713 110.197 38.7713 111.364C38.7713 112.53 38.9569 113.614 39.3281 114.614C39.6993 115.614 40.2713 116.42 41.044 117.034C41.8168 117.648 42.8016 117.955 43.9986 117.955ZM67.0014 112.864V102.545H69.6832V120H67.0014V117.045H66.8196C66.4105 117.932 65.7741 118.686 64.9105 119.307C64.0469 119.92 62.956 120.227 61.6378 120.227C60.5469 120.227 59.5772 119.989 58.7287 119.511C57.8802 119.027 57.2135 118.299 56.7287 117.33C56.2438 116.352 56.0014 115.121 56.0014 113.636V102.545H58.6832V113.455C58.6832 114.727 59.0393 115.742 59.7514 116.5C60.4711 117.258 61.3878 117.636 62.5014 117.636C63.1681 117.636 63.8461 117.466 64.5355 117.125C65.2325 116.784 65.8158 116.261 66.2855 115.557C66.7628 114.852 67.0014 113.955 67.0014 112.864ZM95.9588 106.455L93.5497 107.136C93.3982 106.735 93.1747 106.345 92.8793 105.966C92.5914 105.58 92.1974 105.261 91.6974 105.011C91.1974 104.761 90.5573 104.636 89.777 104.636C88.7088 104.636 87.8187 104.883 87.1065 105.375C86.402 105.86 86.0497 106.477 86.0497 107.227C86.0497 107.894 86.2921 108.42 86.777 108.807C87.2618 109.193 88.0194 109.515 89.0497 109.773L91.6406 110.409C93.2012 110.788 94.3641 111.367 95.1293 112.148C95.8944 112.92 96.277 113.917 96.277 115.136C96.277 116.136 95.9891 117.03 95.4134 117.818C94.8452 118.606 94.0497 119.227 93.027 119.682C92.0043 120.136 90.8149 120.364 89.4588 120.364C87.6785 120.364 86.205 119.977 85.0384 119.205C83.8717 118.432 83.133 117.303 82.8224 115.818L85.3679 115.182C85.6103 116.121 86.0687 116.826 86.7429 117.295C87.4247 117.765 88.3149 118 89.4134 118C90.6634 118 91.6558 117.735 92.3906 117.205C93.133 116.667 93.5043 116.023 93.5043 115.273C93.5043 114.667 93.2921 114.159 92.8679 113.75C92.4437 113.333 91.7921 113.023 90.9134 112.818L88.0043 112.136C86.4058 111.758 85.2315 111.17 84.4815 110.375C83.7391 109.572 83.3679 108.568 83.3679 107.364C83.3679 106.379 83.6444 105.508 84.1974 104.75C84.758 103.992 85.5194 103.398 86.4815 102.966C87.4512 102.534 88.5497 102.318 89.777 102.318C91.5043 102.318 92.8603 102.697 93.8452 103.455C94.8376 104.212 95.5421 105.212 95.9588 106.455ZM102.996 109.5V120H100.314V96.7273H102.996V105.273H103.223C103.632 104.371 104.246 103.655 105.064 103.125C105.89 102.587 106.988 102.318 108.359 102.318C109.549 102.318 110.59 102.557 111.484 103.034C112.378 103.504 113.071 104.227 113.564 105.205C114.064 106.174 114.314 107.409 114.314 108.909V120H111.632V109.091C111.632 107.705 111.272 106.633 110.553 105.875C109.84 105.11 108.852 104.727 107.587 104.727C106.708 104.727 105.92 104.913 105.223 105.284C104.534 105.655 103.988 106.197 103.587 106.909C103.193 107.621 102.996 108.485 102.996 109.5ZM126.311 120.364C124.735 120.364 123.353 119.989 122.163 119.239C120.982 118.489 120.057 117.439 119.391 116.091C118.732 114.742 118.402 113.167 118.402 111.364C118.402 109.545 118.732 107.958 119.391 106.602C120.057 105.246 120.982 104.193 122.163 103.443C123.353 102.693 124.735 102.318 126.311 102.318C127.887 102.318 129.266 102.693 130.447 103.443C131.637 104.193 132.561 105.246 133.22 106.602C133.887 107.958 134.22 109.545 134.22 111.364C134.22 113.167 133.887 114.742 133.22 116.091C132.561 117.439 131.637 118.489 130.447 119.239C129.266 119.989 127.887 120.364 126.311 120.364ZM126.311 117.955C127.508 117.955 128.493 117.648 129.266 117.034C130.038 116.42 130.61 115.614 130.982 114.614C131.353 113.614 131.538 112.53 131.538 111.364C131.538 110.197 131.353 109.11 130.982 108.102C130.61 107.095 130.038 106.28 129.266 105.659C128.493 105.038 127.508 104.727 126.311 104.727C125.114 104.727 124.129 105.038 123.357 105.659C122.584 106.28 122.012 107.095 121.641 108.102C121.269 109.11 121.084 110.197 121.084 111.364C121.084 112.53 121.269 113.614 121.641 114.614C122.012 115.614 122.584 116.42 123.357 117.034C124.129 117.648 125.114 117.955 126.311 117.955ZM149.314 112.864V102.545H151.996V120H149.314V117.045H149.132C148.723 117.932 148.087 118.686 147.223 119.307C146.359 119.92 145.268 120.227 143.95 120.227C142.859 120.227 141.89 119.989 141.041 119.511C140.193 119.027 139.526 118.299 139.041 117.33C138.556 116.352 138.314 115.121 138.314 113.636V102.545H140.996V113.455C140.996 114.727 141.352 115.742 142.064 116.5C142.784 117.258 143.7 117.636 144.814 117.636C145.481 117.636 146.159 117.466 146.848 117.125C147.545 116.784 148.128 116.261 148.598 115.557C149.075 114.852 149.314 113.955 149.314 112.864ZM159.589 96.7273V120H156.908V96.7273H159.589ZM171.092 120.364C169.638 120.364 168.354 119.996 167.24 119.261C166.126 118.519 165.255 117.473 164.626 116.125C163.998 114.769 163.683 113.167 163.683 111.318C163.683 109.485 163.998 107.894 164.626 106.545C165.255 105.197 166.13 104.155 167.251 103.42C168.373 102.686 169.668 102.318 171.138 102.318C172.274 102.318 173.172 102.508 173.831 102.886C174.498 103.258 175.005 103.682 175.354 104.159C175.71 104.629 175.986 105.015 176.183 105.318H176.411V96.7273H179.092V120H176.501V117.318H176.183C175.986 117.636 175.706 118.038 175.342 118.523C174.979 119 174.46 119.428 173.786 119.807C173.111 120.178 172.214 120.364 171.092 120.364ZM171.456 117.955C172.532 117.955 173.441 117.674 174.183 117.114C174.926 116.545 175.49 115.761 175.876 114.761C176.263 113.754 176.456 112.591 176.456 111.273C176.456 109.97 176.267 108.83 175.888 107.852C175.509 106.867 174.948 106.102 174.206 105.557C173.464 105.004 172.547 104.727 171.456 104.727C170.32 104.727 169.373 105.019 168.615 105.602C167.865 106.178 167.301 106.962 166.922 107.955C166.551 108.939 166.365 110.045 166.365 111.273C166.365 112.515 166.554 113.644 166.933 114.659C167.32 115.667 167.888 116.47 168.638 117.068C169.395 117.659 170.335 117.955 171.456 117.955ZM196.058 109.5V120H193.376V102.545H195.967V105.273H196.195C196.604 104.386 197.225 103.674 198.058 103.136C198.892 102.591 199.967 102.318 201.286 102.318C202.467 102.318 203.501 102.561 204.388 103.045C205.274 103.523 205.964 104.25 206.456 105.227C206.948 106.197 207.195 107.424 207.195 108.909V120H204.513V109.091C204.513 107.72 204.157 106.652 203.445 105.886C202.732 105.114 201.755 104.727 200.513 104.727C199.657 104.727 198.892 104.913 198.217 105.284C197.551 105.655 197.024 106.197 196.638 106.909C196.251 107.621 196.058 108.485 196.058 109.5ZM219.186 120.364C217.61 120.364 216.228 119.989 215.038 119.239C213.857 118.489 212.932 117.439 212.266 116.091C211.607 114.742 211.277 113.167 211.277 111.364C211.277 109.545 211.607 107.958 212.266 106.602C212.932 105.246 213.857 104.193 215.038 103.443C216.228 102.693 217.61 102.318 219.186 102.318C220.762 102.318 222.141 102.693 223.322 103.443C224.512 104.193 225.436 105.246 226.095 106.602C226.762 107.958 227.095 109.545 227.095 111.364C227.095 113.167 226.762 114.742 226.095 116.091C225.436 117.439 224.512 118.489 223.322 119.239C222.141 119.989 220.762 120.364 219.186 120.364ZM219.186 117.955C220.383 117.955 221.368 117.648 222.141 117.034C222.913 116.42 223.485 115.614 223.857 114.614C224.228 113.614 224.413 112.53 224.413 111.364C224.413 110.197 224.228 109.11 223.857 108.102C223.485 107.095 222.913 106.28 222.141 105.659C221.368 105.038 220.383 104.727 219.186 104.727C217.989 104.727 217.004 105.038 216.232 105.659C215.459 106.28 214.887 107.095 214.516 108.102C214.144 109.11 213.959 110.197 213.959 111.364C213.959 112.53 214.144 113.614 214.516 114.614C214.887 115.614 215.459 116.42 216.232 117.034C217.004 117.648 217.989 117.955 219.186 117.955ZM238.78 102.545V104.818H229.734V102.545H238.78ZM232.371 98.3636H235.053V115C235.053 115.758 235.162 116.326 235.382 116.705C235.609 117.076 235.897 117.326 236.246 117.455C236.602 117.576 236.977 117.636 237.371 117.636C237.666 117.636 237.909 117.621 238.098 117.591C238.287 117.553 238.439 117.523 238.553 117.5L239.098 119.909C238.916 119.977 238.662 120.045 238.337 120.114C238.011 120.189 237.598 120.227 237.098 120.227C236.34 120.227 235.598 120.064 234.871 119.739C234.151 119.413 233.553 118.917 233.075 118.25C232.606 117.583 232.371 116.742 232.371 115.727V98.3636ZM5.97443 159V135.727H8.65625V144.318H8.88352C9.08049 144.015 9.35322 143.629 9.7017 143.159C10.0578 142.682 10.5653 142.258 11.2244 141.886C11.8911 141.508 12.7926 141.318 13.929 141.318C15.3987 141.318 16.6941 141.686 17.8153 142.42C18.9366 143.155 19.8116 144.197 20.4403 145.545C21.0691 146.894 21.3835 148.485 21.3835 150.318C21.3835 152.167 21.0691 153.769 20.4403 155.125C19.8116 156.473 18.9403 157.519 17.8267 158.261C16.7131 158.996 15.429 159.364 13.9744 159.364C12.8532 159.364 11.9555 159.178 11.2812 158.807C10.607 158.428 10.0881 158 9.72443 157.523C9.3608 157.038 9.08049 156.636 8.88352 156.318H8.56534V159H5.97443ZM8.6108 150.273C8.6108 151.591 8.80398 152.754 9.19034 153.761C9.5767 154.761 10.1411 155.545 10.8835 156.114C11.6259 156.674 12.535 156.955 13.6108 156.955C14.732 156.955 15.6676 156.659 16.4176 156.068C17.1752 155.47 17.7434 154.667 18.1222 153.659C18.5085 152.644 18.7017 151.515 18.7017 150.273C18.7017 149.045 18.5123 147.939 18.1335 146.955C17.7623 145.962 17.1979 145.178 16.4403 144.602C15.6903 144.019 14.7472 143.727 13.6108 143.727C12.5199 143.727 11.6032 144.004 10.8608 144.557C10.1184 145.102 9.55777 145.867 9.17898 146.852C8.80019 147.83 8.6108 148.97 8.6108 150.273ZM32.804 159.364C31.1222 159.364 29.6714 158.992 28.4517 158.25C27.2396 157.5 26.304 156.455 25.6449 155.114C24.9934 153.765 24.6676 152.197 24.6676 150.409C24.6676 148.621 24.9934 147.045 25.6449 145.682C26.304 144.311 27.2206 143.242 28.3949 142.477C29.5767 141.705 30.9555 141.318 32.5312 141.318C33.4403 141.318 34.3381 141.47 35.2244 141.773C36.1108 142.076 36.9176 142.568 37.6449 143.25C38.3722 143.924 38.9517 144.818 39.3835 145.932C39.8153 147.045 40.0312 148.417 40.0312 150.045V151.182H26.5767V148.864H37.304C37.304 147.879 37.107 147 36.7131 146.227C36.3267 145.455 35.7737 144.845 35.054 144.398C34.3419 143.951 33.5009 143.727 32.5312 143.727C31.4631 143.727 30.5388 143.992 29.7585 144.523C28.9858 145.045 28.3911 145.727 27.9744 146.568C27.5578 147.409 27.3494 148.311 27.3494 149.273V150.818C27.3494 152.136 27.5767 153.254 28.0312 154.17C28.4934 155.08 29.1335 155.773 29.9517 156.25C30.7699 156.72 31.7206 156.955 32.804 156.955C33.5085 156.955 34.1449 156.856 34.7131 156.659C35.2888 156.455 35.785 156.152 36.2017 155.75C36.6184 155.341 36.9403 154.833 37.1676 154.227L39.7585 154.955C39.4858 155.833 39.0275 156.606 38.3835 157.273C37.7396 157.932 36.9441 158.447 35.9972 158.818C35.0502 159.182 33.9858 159.364 32.804 159.364ZM65.4744 145.455L63.0653 146.136C62.9138 145.735 62.6903 145.345 62.3949 144.966C62.107 144.58 61.7131 144.261 61.2131 144.011C60.7131 143.761 60.0729 143.636 59.2926 143.636C58.2244 143.636 57.3343 143.883 56.6222 144.375C55.9176 144.86 55.5653 145.477 55.5653 146.227C55.5653 146.894 55.8078 147.42 56.2926 147.807C56.7775 148.193 57.535 148.515 58.5653 148.773L61.1562 149.409C62.7169 149.788 63.8797 150.367 64.6449 151.148C65.41 151.92 65.7926 152.917 65.7926 154.136C65.7926 155.136 65.5047 156.03 64.929 156.818C64.3608 157.606 63.5653 158.227 62.5426 158.682C61.5199 159.136 60.3305 159.364 58.9744 159.364C57.1941 159.364 55.7206 158.977 54.554 158.205C53.3873 157.432 52.6487 156.303 52.3381 154.818L54.8835 154.182C55.1259 155.121 55.5843 155.826 56.2585 156.295C56.9403 156.765 57.8305 157 58.929 157C60.179 157 61.1714 156.735 61.9062 156.205C62.6487 155.667 63.0199 155.023 63.0199 154.273C63.0199 153.667 62.8078 153.159 62.3835 152.75C61.9593 152.333 61.3078 152.023 60.429 151.818L57.5199 151.136C55.9214 150.758 54.7472 150.17 53.9972 149.375C53.2547 148.572 52.8835 147.568 52.8835 146.364C52.8835 145.379 53.16 144.508 53.7131 143.75C54.2737 142.992 55.035 142.398 55.9972 141.966C56.9669 141.534 58.0653 141.318 59.2926 141.318C61.0199 141.318 62.3759 141.697 63.3608 142.455C64.3532 143.212 65.0578 144.212 65.4744 145.455ZM77.1477 159.364C75.4659 159.364 74.0152 158.992 72.7955 158.25C71.5833 157.5 70.6477 156.455 69.9886 155.114C69.3371 153.765 69.0114 152.197 69.0114 150.409C69.0114 148.621 69.3371 147.045 69.9886 145.682C70.6477 144.311 71.5644 143.242 72.7386 142.477C73.9205 141.705 75.2992 141.318 76.875 141.318C77.7841 141.318 78.6818 141.47 79.5682 141.773C80.4545 142.076 81.2614 142.568 81.9886 143.25C82.7159 143.924 83.2955 144.818 83.7273 145.932C84.1591 147.045 84.375 148.417 84.375 150.045V151.182H70.9205V148.864H81.6477C81.6477 147.879 81.4508 147 81.0568 146.227C80.6705 145.455 80.1174 144.845 79.3977 144.398C78.6856 143.951 77.8447 143.727 76.875 143.727C75.8068 143.727 74.8826 143.992 74.1023 144.523C73.3295 145.045 72.7348 145.727 72.3182 146.568C71.9015 147.409 71.6932 148.311 71.6932 149.273V150.818C71.6932 152.136 71.9205 153.254 72.375 154.17C72.8371 155.08 73.4773 155.773 74.2955 156.25C75.1136 156.72 76.0644 156.955 77.1477 156.955C77.8523 156.955 78.4886 156.856 79.0568 156.659C79.6326 156.455 80.1288 156.152 80.5455 155.75C80.9621 155.341 81.2841 154.833 81.5114 154.227L84.1023 154.955C83.8295 155.833 83.3712 156.606 82.7273 157.273C82.0833 157.932 81.2879 158.447 80.3409 158.818C79.3939 159.182 78.3295 159.364 77.1477 159.364ZM95.7727 159.364C94.0909 159.364 92.6402 158.992 91.4205 158.25C90.2083 157.5 89.2727 156.455 88.6136 155.114C87.9621 153.765 87.6364 152.197 87.6364 150.409C87.6364 148.621 87.9621 147.045 88.6136 145.682C89.2727 144.311 90.1894 143.242 91.3636 142.477C92.5455 141.705 93.9242 141.318 95.5 141.318C96.4091 141.318 97.3068 141.47 98.1932 141.773C99.0795 142.076 99.8864 142.568 100.614 143.25C101.341 143.924 101.92 144.818 102.352 145.932C102.784 147.045 103 148.417 103 150.045V151.182H89.5455V148.864H100.273C100.273 147.879 100.076 147 99.6818 146.227C99.2955 145.455 98.7424 144.845 98.0227 144.398C97.3106 143.951 96.4697 143.727 95.5 143.727C94.4318 143.727 93.5076 143.992 92.7273 144.523C91.9545 145.045 91.3598 145.727 90.9432 146.568C90.5265 147.409 90.3182 148.311 90.3182 149.273V150.818C90.3182 152.136 90.5455 153.254 91 154.17C91.4621 155.08 92.1023 155.773 92.9205 156.25C93.7386 156.72 94.6894 156.955 95.7727 156.955C96.4773 156.955 97.1136 156.856 97.6818 156.659C98.2576 156.455 98.7538 156.152 99.1705 155.75C99.5871 155.341 99.9091 154.833 100.136 154.227L102.727 154.955C102.455 155.833 101.996 156.606 101.352 157.273C100.708 157.932 99.9129 158.447 98.9659 158.818C98.0189 159.182 96.9545 159.364 95.7727 159.364ZM107.08 159V141.545H109.761V159H107.08ZM108.443 138.636C107.92 138.636 107.47 138.458 107.091 138.102C106.72 137.746 106.534 137.318 106.534 136.818C106.534 136.318 106.72 135.89 107.091 135.534C107.47 135.178 107.92 135 108.443 135C108.966 135 109.413 135.178 109.784 135.534C110.163 135.89 110.352 136.318 110.352 136.818C110.352 137.318 110.163 137.746 109.784 138.102C109.413 138.458 108.966 138.636 108.443 138.636ZM117.355 148.5V159H114.673V141.545H117.264V144.273H117.491C117.901 143.386 118.522 142.674 119.355 142.136C120.188 141.591 121.264 141.318 122.582 141.318C123.764 141.318 124.798 141.561 125.685 142.045C126.571 142.523 127.26 143.25 127.753 144.227C128.245 145.197 128.491 146.424 128.491 147.909V159H125.81V148.091C125.81 146.72 125.454 145.652 124.741 144.886C124.029 144.114 123.052 143.727 121.81 143.727C120.954 143.727 120.188 143.913 119.514 144.284C118.848 144.655 118.321 145.197 117.935 145.909C117.548 146.621 117.355 147.485 117.355 148.5ZM140.438 165.909C139.142 165.909 138.028 165.742 137.097 165.409C136.165 165.083 135.388 164.652 134.767 164.114C134.153 163.583 133.665 163.015 133.301 162.409L135.438 160.909C135.68 161.227 135.987 161.591 136.358 162C136.729 162.417 137.237 162.777 137.881 163.08C138.532 163.39 139.384 163.545 140.438 163.545C141.847 163.545 143.009 163.205 143.926 162.523C144.843 161.841 145.301 160.773 145.301 159.318V155.773H145.074C144.877 156.091 144.597 156.485 144.233 156.955C143.877 157.417 143.362 157.83 142.688 158.193C142.021 158.549 141.119 158.727 139.983 158.727C138.574 158.727 137.309 158.394 136.188 157.727C135.074 157.061 134.191 156.091 133.54 154.818C132.896 153.545 132.574 152 132.574 150.182C132.574 148.394 132.888 146.837 133.517 145.511C134.146 144.178 135.021 143.148 136.142 142.42C137.263 141.686 138.559 141.318 140.028 141.318C141.165 141.318 142.066 141.508 142.733 141.886C143.407 142.258 143.922 142.682 144.278 143.159C144.642 143.629 144.922 144.015 145.119 144.318H145.392V141.545H147.983V159.5C147.983 161 147.642 162.22 146.96 163.159C146.286 164.106 145.377 164.799 144.233 165.239C143.097 165.686 141.831 165.909 140.438 165.909ZM140.347 156.318C141.422 156.318 142.331 156.072 143.074 155.58C143.816 155.087 144.381 154.379 144.767 153.455C145.153 152.53 145.347 151.424 145.347 150.136C145.347 148.879 145.157 147.769 144.778 146.807C144.4 145.845 143.839 145.091 143.097 144.545C142.354 144 141.438 143.727 140.347 143.727C139.21 143.727 138.263 144.015 137.506 144.591C136.756 145.167 136.191 145.939 135.812 146.909C135.441 147.879 135.256 148.955 135.256 150.136C135.256 151.348 135.445 152.42 135.824 153.352C136.21 154.277 136.778 155.004 137.528 155.534C138.286 156.057 139.225 156.318 140.347 156.318ZM169.483 141.545V143.818H160.438V141.545H169.483ZM163.074 137.364H165.756V154C165.756 154.758 165.866 155.326 166.085 155.705C166.313 156.076 166.6 156.326 166.949 156.455C167.305 156.576 167.68 156.636 168.074 156.636C168.369 156.636 168.612 156.621 168.801 156.591C168.991 156.553 169.142 156.523 169.256 156.5L169.801 158.909C169.619 158.977 169.366 159.045 169.04 159.114C168.714 159.189 168.301 159.227 167.801 159.227C167.044 159.227 166.301 159.064 165.574 158.739C164.854 158.413 164.256 157.917 163.778 157.25C163.309 156.583 163.074 155.742 163.074 154.727V137.364ZM176.574 148.5V159H173.892V135.727H176.574V144.273H176.801C177.21 143.371 177.824 142.655 178.642 142.125C179.468 141.587 180.566 141.318 181.938 141.318C183.127 141.318 184.169 141.557 185.062 142.034C185.956 142.504 186.65 143.227 187.142 144.205C187.642 145.174 187.892 146.409 187.892 147.909V159H185.21V148.091C185.21 146.705 184.85 145.633 184.131 144.875C183.419 144.11 182.43 143.727 181.165 143.727C180.286 143.727 179.498 143.913 178.801 144.284C178.112 144.655 177.566 145.197 177.165 145.909C176.771 146.621 176.574 147.485 176.574 148.5ZM192.798 159V141.545H195.48V159H192.798ZM194.162 138.636C193.639 138.636 193.188 138.458 192.81 138.102C192.438 137.746 192.253 137.318 192.253 136.818C192.253 136.318 192.438 135.89 192.81 135.534C193.188 135.178 193.639 135 194.162 135C194.685 135 195.132 135.178 195.503 135.534C195.882 135.89 196.071 136.318 196.071 136.818C196.071 137.318 195.882 137.746 195.503 138.102C195.132 138.458 194.685 138.636 194.162 138.636ZM212.756 145.455L210.347 146.136C210.195 145.735 209.972 145.345 209.676 144.966C209.388 144.58 208.994 144.261 208.494 144.011C207.994 143.761 207.354 143.636 206.574 143.636C205.506 143.636 204.616 143.883 203.903 144.375C203.199 144.86 202.847 145.477 202.847 146.227C202.847 146.894 203.089 147.42 203.574 147.807C204.059 148.193 204.816 148.515 205.847 148.773L208.438 149.409C209.998 149.788 211.161 150.367 211.926 151.148C212.691 151.92 213.074 152.917 213.074 154.136C213.074 155.136 212.786 156.03 212.21 156.818C211.642 157.606 210.847 158.227 209.824 158.682C208.801 159.136 207.612 159.364 206.256 159.364C204.475 159.364 203.002 158.977 201.835 158.205C200.669 157.432 199.93 156.303 199.619 154.818L202.165 154.182C202.407 155.121 202.866 155.826 203.54 156.295C204.222 156.765 205.112 157 206.21 157C207.46 157 208.453 156.735 209.188 156.205C209.93 155.667 210.301 155.023 210.301 154.273C210.301 153.667 210.089 153.159 209.665 152.75C209.241 152.333 208.589 152.023 207.71 151.818L204.801 151.136C203.203 150.758 202.028 150.17 201.278 149.375C200.536 148.572 200.165 147.568 200.165 146.364C200.165 145.379 200.441 144.508 200.994 143.75C201.555 142.992 202.316 142.398 203.278 141.966C204.248 141.534 205.347 141.318 206.574 141.318C208.301 141.318 209.657 141.697 210.642 142.455C211.634 143.212 212.339 144.212 212.756 145.455ZM228.065 156.023C227.505 156.023 227.024 155.822 226.622 155.42C226.221 155.019 226.02 154.538 226.02 153.977C226.02 153.417 226.221 152.936 226.622 152.534C227.024 152.133 227.505 151.932 228.065 151.932C228.626 151.932 229.107 152.133 229.509 152.534C229.91 152.936 230.111 153.417 230.111 153.977C230.111 154.348 230.016 154.689 229.827 155C229.645 155.311 229.399 155.561 229.088 155.75C228.785 155.932 228.444 156.023 228.065 156.023ZM228.065 144.25C227.505 144.25 227.024 144.049 226.622 143.648C226.221 143.246 226.02 142.765 226.02 142.205C226.02 141.644 226.221 141.163 226.622 140.761C227.024 140.36 227.505 140.159 228.065 140.159C228.626 140.159 229.107 140.36 229.509 140.761C229.91 141.163 230.111 141.644 230.111 142.205C230.111 142.576 230.016 142.917 229.827 143.227C229.645 143.538 229.399 143.788 229.088 143.977C228.785 144.159 228.444 144.25 228.065 144.25ZM242.741 159.318C241.241 159.318 239.904 159.061 238.73 158.545C237.563 158.03 236.635 157.314 235.946 156.398C235.264 155.473 234.893 154.402 234.832 153.182H237.696C237.757 153.932 238.014 154.58 238.469 155.125C238.923 155.663 239.518 156.08 240.253 156.375C240.988 156.67 241.802 156.818 242.696 156.818C243.696 156.818 244.582 156.644 245.355 156.295C246.128 155.947 246.734 155.462 247.173 154.841C247.613 154.22 247.832 153.5 247.832 152.682C247.832 151.826 247.62 151.072 247.196 150.42C246.772 149.761 246.151 149.246 245.332 148.875C244.514 148.504 243.514 148.318 242.332 148.318H240.469V145.818H242.332C243.257 145.818 244.067 145.652 244.764 145.318C245.469 144.985 246.018 144.515 246.412 143.909C246.813 143.303 247.014 142.591 247.014 141.773C247.014 140.985 246.84 140.299 246.491 139.716C246.143 139.133 245.651 138.678 245.014 138.352C244.385 138.027 243.643 137.864 242.787 137.864C241.984 137.864 241.226 138.011 240.514 138.307C239.81 138.595 239.234 139.015 238.787 139.568C238.34 140.114 238.098 140.773 238.06 141.545H235.332C235.378 140.326 235.745 139.258 236.435 138.341C237.124 137.417 238.026 136.697 239.139 136.182C240.26 135.667 241.491 135.409 242.832 135.409C244.272 135.409 245.507 135.701 246.537 136.284C247.567 136.86 248.359 137.621 248.912 138.568C249.465 139.515 249.741 140.538 249.741 141.636C249.741 142.947 249.397 144.064 248.707 144.989C248.026 145.913 247.098 146.553 245.923 146.909V147.091C247.393 147.333 248.541 147.958 249.366 148.966C250.192 149.966 250.605 151.205 250.605 152.682C250.605 153.947 250.26 155.083 249.571 156.091C248.889 157.091 247.957 157.879 246.776 158.455C245.594 159.03 244.249 159.318 242.741 159.318Z" fill="white"/>
</svg>