<svg width="256" height="256" viewBox="0 0 256 256" xmlns="http://www.w3.org/2000/svg">
  <path fill-rule="evenodd" clip-rule="evenodd" d="M127.5 158.453C145.298 158.453 159.727 144.025 159.727 126.227C159.727 108.428 145.298 94 127.5 94C109.702 94 95.2734 108.428 95.2734 126.227C95.2734 144.025 109.702 158.453 127.5 158.453ZM145.547 173.5H143.613H111.387H109.453C73.8566 173.5 45 202.357 45 237.953V237.953C45 247.92 53.0799 256 63.0469 256H111.387H143.613H191.953C201.92 256 210 247.92 210 237.953V237.953C210 202.357 181.143 173.5 145.547 173.5Z"/>
  <path d="M72.8421 166.772C67.515 170.502 60.082 169.235 57.1899 163.411C52.5398 154.045 49.7896 143.808 49.1464 133.292C48.2626 118.842 51.392 104.429 58.1886 91.6465C64.9852 78.8639 75.1843 68.2098 87.6582 60.8621C100.132 53.5144 114.395 49.7593 128.87 50.012C143.345 50.2646 157.468 54.5152 169.678 62.2938C181.888 70.0723 191.709 81.0759 198.055 94.0879C204.402 107.1 207.026 121.613 205.639 136.024C204.629 146.511 201.523 156.646 196.549 165.843C193.455 171.563 185.983 172.57 180.789 168.656V168.656C175.595 164.742 174.694 157.388 177.414 151.481C179.978 145.911 181.604 139.926 182.197 133.767C183.168 123.679 181.331 113.52 176.889 104.411C172.446 95.3031 165.572 87.6006 157.025 82.1556C148.478 76.7106 138.591 73.7352 128.459 73.5584C118.327 73.3815 108.343 76.0101 99.6108 81.1535C90.879 86.2969 83.7397 93.7547 78.982 102.703C74.2244 111.65 72.0338 121.74 72.6525 131.855C73.0302 138.03 74.4462 144.069 76.8147 149.725C79.3266 155.724 78.1691 163.042 72.8421 166.772V166.772Z"/>
  <path d="M35.3966 192.992C28.1298 198.08 18.0135 196.35 13.8709 188.506C5.37104 172.41 0.358345 154.635 -0.760321 136.345C-2.20707 112.691 2.91557 89.0972 14.0412 68.1729C25.1669 47.2486 41.8622 29.8084 62.2813 17.7807C82.7004 5.75287 106.048 -0.394019 129.743 0.019571C153.437 0.433161 176.556 7.39112 196.543 20.1242C216.53 32.8573 232.606 50.8694 242.995 72.1693C253.384 93.4692 257.68 117.227 255.408 140.816C253.652 159.056 248.022 176.646 238.966 192.435C234.552 200.13 224.381 201.505 217.297 196.167V196.167C210.212 190.828 208.935 180.8 213.024 172.927C218.692 162.016 222.243 150.075 223.431 137.737C225.135 120.045 221.913 102.227 214.121 86.252C206.33 70.2771 194.272 56.7679 179.282 47.2181C164.292 37.6683 146.953 32.4499 129.182 32.1397C111.411 31.8295 93.9003 36.4397 78.586 45.4605C63.2716 54.4813 50.7502 67.5614 42.4059 83.2547C34.0617 98.9479 30.2197 116.643 31.3048 134.384C32.0614 146.755 35.1936 158.813 40.4775 169.915C44.2897 177.926 42.6634 187.903 35.3966 192.992V192.992Z"/>
</svg>