<svg width="256" height="256" viewBox="0 0 256 256" xmlns="http://www.w3.org/2000/svg">
  <path fill-rule="evenodd" clip-rule="evenodd" d="M0 40C0 28.9543 8.95431 20 20 20H236C247.046 20 256 28.9543 256 40V215C256 226.046 247.046 235 236 235H20C8.95431 235 0 226.046 0 215V40ZM78 68C78 81.8071 66.8071 93 53 93C39.1929 93 28 81.8071 28 68C28 54.1929 39.1929 43 53 43C66.8071 43 78 54.1929 78 68ZM150.135 91.8679C153.266 86.7107 160.734 86.7107 163.865 91.8679L234.817 208.76C238.075 214.127 234.22 221 227.952 221L142.03 221L86.048 221L86.0318 221H26.9705C20.3787 221 16.6463 213.367 20.6525 208.08L78.1821 132.152C81.3664 127.949 87.6335 127.949 90.8179 132.152L110.176 157.7L150.135 91.8679Z"/>
</svg>