<svg width="256" height="256" viewBox="0 0 256 256" fill="none" xmlns="http://www.w3.org/2000/svg">
  <path d="M144 24.4C144 19.7608 147.766 15.9672 152.392 16.3149C164.227 17.2041 175.863 19.9702 186.861 24.5255C200.449 30.154 212.796 38.4039 223.196 48.804C233.596 59.2042 241.846 71.551 247.475 85.1395C253.103 98.7279 256 113.292 256 128C256 142.708 253.103 157.272 247.474 170.861C241.846 184.449 233.596 196.796 223.196 207.196C212.796 217.596 200.449 225.846 186.861 231.475C175.863 236.03 164.227 238.796 152.392 239.685C147.766 240.033 144 236.239 144 231.6V231.6C144 226.961 147.768 223.238 152.389 222.83C162.016 221.978 171.473 219.664 180.431 215.953C191.982 211.169 202.476 204.157 211.317 195.317C220.157 186.476 227.169 175.982 231.953 164.431C236.738 152.881 239.2 140.502 239.2 128C239.2 115.498 236.738 103.119 231.953 91.5685C227.169 80.0183 220.157 69.5236 211.317 60.6834C202.476 51.8433 191.982 44.8309 180.431 40.0467C171.473 36.3359 162.016 34.022 152.389 33.1703C147.768 32.7615 144 29.0392 144 24.4V24.4Z" fill="white"/>
  <path d="M143.5 53.25C143.5 48.6937 147.203 44.9573 151.736 45.4122C159.745 46.2157 167.608 48.1885 175.071 51.2799C185.081 55.426 194.175 61.5029 201.836 69.1637C209.497 76.8245 215.574 85.9193 219.72 95.9286C223.866 105.938 226 116.666 226 127.5C226 138.334 223.866 149.062 219.72 159.071C215.574 169.081 209.497 178.175 201.836 185.836C194.175 193.497 185.081 199.574 175.071 203.72C167.608 206.812 159.745 208.784 151.736 209.588C147.203 210.043 143.5 206.306 143.5 201.75V201.75C143.5 197.194 147.208 193.553 151.729 192.985C157.568 192.251 163.296 190.738 168.757 188.476C176.765 185.159 184.04 180.298 190.169 174.169C196.298 168.04 201.159 160.765 204.476 152.757C207.793 144.75 209.5 136.167 209.5 127.5C209.5 118.833 207.793 110.25 204.476 102.243C201.159 94.2354 196.298 86.9596 190.169 80.831C184.04 74.7023 176.765 69.8408 168.757 66.524C163.296 64.2621 157.569 62.7488 151.729 62.015C147.208 61.4469 143.5 57.8063 143.5 53.25V53.25Z" fill="white"/>
  <path d="M0 79C0 70.7157 6.71573 64 15 64H35.4614C40.755 64 45.6567 61.2098 48.3593 56.6581L77.6407 7.34192C80.3433 2.7902 85.245 0 90.5386 0H116C124.284 0 131 6.71573 131 15V241C131 249.284 124.284 256 116 256H90.5386C85.245 256 80.3433 253.21 77.6407 248.658L48.3593 199.342C45.6567 194.79 40.755 192 35.4614 192H15C6.71573 192 0 185.284 0 177V79Z" fill="white"/>
</svg>