<svg width="256" height="256" viewBox="0 0 256 256" fill="none" xmlns="http://www.w3.org/2000/svg">
  <path d="M151 33.5C151 27.701 155.713 22.9456 161.483 23.5246C171.675 24.5473 181.683 27.0581 191.182 30.9927C203.921 36.2694 215.496 44.0036 225.246 53.7538C234.996 63.5039 242.731 75.0791 248.007 87.8183C253.284 100.557 256 114.211 256 128C256 141.789 253.284 155.443 248.007 168.182C242.731 180.921 234.996 192.496 225.246 202.246C215.496 211.996 203.921 219.731 191.182 225.007C181.683 228.942 171.675 231.453 161.483 232.475C155.713 233.054 151 228.299 151 222.5V222.5C151 216.701 155.719 212.068 161.473 211.345C168.905 210.411 176.195 208.485 183.145 205.606C193.337 201.384 202.597 195.197 210.397 187.397C218.197 179.597 224.384 170.337 228.606 160.145C232.827 149.954 235 139.031 235 128C235 116.969 232.827 106.046 228.606 95.8546C224.384 85.6633 218.197 76.4032 210.397 68.603C202.597 60.8029 193.337 54.6155 183.145 50.3941C176.196 47.5154 168.905 45.5894 161.473 44.6554C155.719 43.9324 151 39.299 151 33.5V33.5Z" fill="white"/>
  <path d="M150.5 69.275C150.5 63.6003 155.126 58.9212 160.737 59.7692C166.21 60.5965 171.576 62.0861 176.714 64.2143C185.025 67.6567 192.576 72.7024 198.937 79.0632C205.298 85.424 210.343 92.9754 213.786 101.286C217.228 109.597 219 118.504 219 127.5C219 136.496 217.228 145.403 213.786 153.714C210.343 162.025 205.298 169.576 198.937 175.937C192.576 182.298 185.025 187.343 176.714 190.786C171.576 192.914 166.21 194.404 160.737 195.231C155.126 196.079 150.5 191.4 150.5 185.725V185.725C150.5 180.05 155.152 175.56 160.697 174.353C163.478 173.748 166.207 172.895 168.85 171.8C174.667 169.39 179.953 165.858 184.406 161.406C188.858 156.953 192.39 151.667 194.8 145.85C197.21 140.032 198.45 133.797 198.45 127.5C198.45 121.203 197.21 114.968 194.8 109.15C192.39 103.333 188.858 98.0468 184.406 93.5942C179.953 89.1417 174.667 85.6097 168.85 83.2C166.207 82.1054 163.478 81.2521 160.697 80.6467C155.152 79.44 150.5 74.9497 150.5 69.275V69.275Z" fill="white"/>
  <path d="M0 84C0 72.9543 8.95431 64 20 64H43.3557C46.994 64 50.5084 62.6776 53.2442 60.2791L119.286 2.37976C121.035 0.845756 123.283 0 125.61 0V0C133.557 0 140 6.44267 140 14.3901V241.61C140 249.557 133.557 256 125.61 256V256C123.283 256 121.035 255.154 119.286 253.62L53.2442 195.721C50.5084 193.322 46.994 192 43.3557 192H20C8.9543 192 0 183.046 0 172V84Z" fill="white"/>
</svg>