<svg width="256" height="256" viewBox="0 0 256 256" xmlns="http://www.w3.org/2000/svg">
  <path d="M144 23.875C144 15.6598 150.692 8.89306 158.826 10.0472C168.438 11.4111 177.863 14.0985 186.861 18.0583C200.449 24.0386 212.796 32.8041 223.196 43.8543C233.596 54.9045 241.846 68.0229 247.475 82.4607C253.103 96.8984 256 112.373 256 128C256 143.627 253.103 159.102 247.474 173.539C241.846 187.977 233.596 201.096 223.196 212.146C212.796 223.196 200.449 231.961 186.861 237.942C177.863 241.902 168.438 244.589 158.826 245.953C150.692 247.107 144 240.34 144 232.125V232.125C144 223.91 150.717 217.39 158.788 215.856C164.725 214.728 170.546 212.921 176.145 210.456C186.337 205.971 195.597 199.397 203.397 191.109C211.197 182.822 217.384 172.983 221.606 162.155C225.827 151.326 228 139.72 228 128C228 116.28 225.827 104.674 221.606 93.8455C217.384 83.0172 211.197 73.1784 203.397 64.8907C195.597 56.6031 186.337 50.029 176.145 45.5438C170.546 43.0794 164.726 41.2721 158.788 40.1439C150.717 38.6103 144 32.0902 144 23.875V23.875Z"/>
  <path d="M143.5 64.3875C143.5 56.9938 149.546 50.8729 156.808 52.2643C161.876 53.2354 166.844 54.7609 171.627 56.8232C180.545 60.6677 188.647 66.3027 195.472 73.4063C202.297 80.51 207.711 88.9433 211.405 98.2247C215.099 107.506 217 117.454 217 127.5C217 137.546 215.099 147.494 211.405 156.775C207.711 166.057 202.297 174.49 195.472 181.594C188.647 188.697 180.545 194.332 171.627 198.177C166.844 200.239 161.876 201.765 156.808 202.736C149.546 204.127 143.5 198.006 143.5 190.612V190.612C143.5 183.219 149.616 177.409 156.699 175.29C158.422 174.774 160.12 174.157 161.783 173.44C167.579 170.941 172.846 167.278 177.282 162.661C181.718 158.044 185.237 152.562 187.638 146.529C190.039 140.496 191.275 134.03 191.275 127.5C191.275 120.97 190.039 114.504 187.638 108.471C185.237 102.438 181.718 96.9565 177.282 92.3391C172.846 87.7217 167.579 84.059 161.783 81.5601C160.12 80.8431 158.422 80.226 156.699 79.7104C149.616 77.5911 143.5 71.7812 143.5 64.3875V64.3875Z"/>
  <path d="M0 84C0 72.9543 8.95431 64 20 64H43.0513C46.8724 64 50.5493 62.5418 53.3318 59.923L114.259 2.57959C116.02 0.922635 118.346 0 120.764 0V0C128.626 0 135 6.37375 135 14.2362V241.764C135 249.626 128.626 256 120.764 256V256C118.346 256 116.02 255.077 114.259 253.42L53.3318 196.077C50.5493 193.458 46.8724 192 43.0513 192H20C8.9543 192 0 183.046 0 172V84Z"/>
</svg>