<svg width="256" height="256" viewBox="0 0 256 256" fill="none" xmlns="http://www.w3.org/2000/svg">
  <rect x="7" y="76" width="25" height="104" rx="12.5" fill="white"/>
  <path d="M160 207C160 232.405 139.853 253 115 253C90.1472 253 70 232.405 70 207C70 181.595 90.1472 161 115 161C139.853 161 160 181.595 160 207ZM88 207C88 222.243 100.088 234.6 115 234.6C129.912 234.6 142 222.243 142 207C142 191.757 129.912 179.4 115 179.4C100.088 179.4 88 191.757 88 207Z" fill="white"/>
  <path d="M219 12C219 5.37258 224.373 0 231 0H239C245.627 0 251 5.37258 251 12V244C251 250.627 245.627 256 239 256H231C224.373 256 219 250.627 219 244V12Z" fill="white"/>
  <path d="M41 90.9502C41 82.374 46.4679 74.7524 54.592 72.0045L232 12V244L54.592 183.995C46.4679 181.248 41 173.626 41 165.05V90.9502Z" fill="white"/>
</svg>