<svg width="256" height="256" viewBox="0 0 256 256" xmlns="http://www.w3.org/2000/svg"><path fill-rule="evenodd" clip-rule="evenodd" d="M128 256C198.692 256 256 198.692 256 128C256 57.3076 198.692 0 128 0C57.3076 0 0 57.3076 0 128C0 198.692 57.3076 256 128 256ZM113 61C113 54.9249 117.925 50 124 50H131C137.075 50 142 54.9249 142 61V152C142 158.075 137.075 163 131 163H124C117.925 163 113 158.075 113 152V61ZM142 191.5C142 199.508 135.508 206 127.5 206C119.492 206 113 199.508 113 191.5C113 183.492 119.492 177 127.5 177C135.508 177 142 183.492 142 191.5Z" fill="#ffc31f"/></svg>