<svg width="256" height="256" viewBox="0 0 256 256" xmlns="http://www.w3.org/2000/svg">
  <mask id="path-1-outside-1_51_2" maskUnits="userSpaceOnUse" x="101" y="0" width="156" height="143" fill="black">
    <rect fill="white" x="101" width="156" height="143"/>
    <path fill-rule="evenodd" clip-rule="evenodd" d="M194.676 22.1234C187.776 9.95886 170.224 9.95887 163.324 22.1234L117.366 103.147C110.564 115.138 119.24 130 133.042 130H224.958C238.76 130 247.436 115.138 240.634 103.147L194.676 22.1234ZM166 40.5C166 33.5964 171.596 28 178.5 28C185.404 28 191 33.5964 191 40.5V78.5C191 85.4036 185.404 91 178.5 91C171.596 91 166 85.4036 166 78.5V40.5ZM191 109.5C191 116.404 185.404 122 178.5 122C171.596 122 166 116.404 166 109.5C166 102.596 171.596 97 178.5 97C185.404 97 191 102.596 191 109.5Z"/>
  </mask>
  <path fill-rule="evenodd" clip-rule="evenodd" d="M194.676 22.1234C187.776 9.95886 170.224 9.95887 163.324 22.1234L117.366 103.147C110.564 115.138 119.24 130 133.042 130H224.958C238.76 130 247.436 115.138 240.634 103.147L194.676 22.1234ZM166 40.5C166 33.5964 171.596 28 178.5 28C185.404 28 191 33.5964 191 40.5V78.5C191 85.4036 185.404 91 178.5 91C171.596 91 166 85.4036 166 78.5V40.5ZM191 109.5C191 116.404 185.404 122 178.5 122C171.596 122 166 116.404 166 109.5C166 102.596 171.596 97 178.5 97C185.404 97 191 102.596 191 109.5Z"/>
  <path d="M163.324 22.1234L174.632 28.5373L174.632 28.5373L163.324 22.1234ZM194.676 22.1234L205.983 15.7095L205.983 15.7095L194.676 22.1234ZM117.366 103.147L106.058 96.7326L106.058 96.7326L117.366 103.147ZM240.634 103.147L229.326 109.56L229.326 109.56L240.634 103.147ZM174.632 28.5373C176.551 25.1542 181.449 25.1542 183.368 28.5373L205.983 15.7095C194.102 -5.23651 163.898 -5.23647 152.017 15.7095L174.632 28.5373ZM128.674 109.56L174.632 28.5373L152.017 15.7095L106.058 96.7326L128.674 109.56ZM133.042 117C129.169 117 126.804 112.857 128.674 109.56L106.058 96.7326C94.3242 117.42 109.31 143 133.042 143V117ZM224.958 117H133.042V143H224.958V117ZM229.326 109.56C231.196 112.857 228.831 117 224.958 117V143C248.69 143 263.676 117.42 251.942 96.7326L229.326 109.56ZM183.368 28.5373L229.326 109.56L251.942 96.7326L205.983 15.7095L183.368 28.5373ZM178.5 15C164.417 15 153 26.4167 153 40.5H179C179 40.7761 178.776 41 178.5 41V15ZM204 40.5C204 26.4167 192.583 15 178.5 15V41C178.224 41 178 40.7761 178 40.5H204ZM204 78.5V40.5H178V78.5H204ZM178.5 104C192.583 104 204 92.5833 204 78.5H178C178 78.2239 178.224 78 178.5 78V104ZM153 78.5C153 92.5833 164.417 104 178.5 104V78C178.776 78 179 78.2239 179 78.5H153ZM153 40.5V78.5H179V40.5H153ZM178.5 135C192.583 135 204 123.583 204 109.5H178C178 109.224 178.224 109 178.5 109V135ZM153 109.5C153 123.583 164.417 135 178.5 135V109C178.776 109 179 109.224 179 109.5H153ZM178.5 84C164.417 84 153 95.4167 153 109.5H179C179 109.776 178.776 110 178.5 110V84ZM204 109.5C204 95.4167 192.583 84 178.5 84V110C178.224 110 178 109.776 178 109.5H204Z" fill="black" mask="url(#path-1-outside-1_51_2)"/>
</svg>