<svg width="256" height="256" viewBox="0 0 256 256" xmlns="http://www.w3.org/2000/svg">
  <path fill-rule="evenodd" clip-rule="evenodd" d="M0 28C0 16.9543 8.95431 8 20 8H212C214.761 8 217 10.2386 217 13V195C217 197.761 214.761 200 212 200H34.421C27.5538 200.042 22 205.623 22 212.5C22 219.403 27.5964 225 34.5 225H60V225H219C227.284 225 234 218.284 234 210V200V26C234 23.7909 235.791 22 238 22H244C250.627 22 256 27.3726 256 34V200V225V232C256 240.284 249.284 247 241 247H43V247H20C8.9543 247 0 238.045 0 227V200V187V28ZM101.425 163.355C96.8395 165.12 91.4378 164.162 87.7373 160.484L43.7514 116.756C38.7495 111.783 38.7495 103.721 43.7514 98.7487C48.7532 93.7762 56.8628 93.7762 61.8646 98.7487L97.081 133.759L166.517 64.7294C171.519 59.7569 179.629 59.7569 184.631 64.7294C189.632 69.7019 189.632 77.7639 184.631 82.7364L106.728 160.182C105.193 161.708 103.366 162.765 101.425 163.355Z"/>
</svg>