<svg width="256" height="256" viewBox="0 0 256 256" xmlns="http://www.w3.org/2000/svg">
  <path fill-rule="evenodd" clip-rule="evenodd" d="M204 8H25C11.1929 8 0 19.1929 0 33V200H0.0012398C0.000413759 200.119 0 200.239 0 200.359C0 226.118 19.1632 247 42.8022 247C42.8682 247 42.9341 247 43 247V247H241C249.284 247 256 240.284 256 232V217V34C256 27.3726 250.627 22 244 22H230C227.791 22 226 23.7909 226 26V217H82.7998H44.5C37.5964 217 32 211.404 32 204.5C32 197.596 37.5964 192 44.5 192H84.919H204C206.761 192 209 189.761 209 187V13C209 10.2386 206.761 8 204 8ZM88.6152 160.182C88.2341 159.803 87.882 159.406 87.5589 158.994C85.7772 158.075 84.1052 156.873 82.6103 155.387L43.7515 116.756C38.7497 111.783 38.7497 103.721 43.7515 98.7487C48.7533 93.7762 56.8629 93.7762 61.8647 98.7487L97.0811 133.759L172.028 59.251C173.987 57.3041 177.162 57.3041 179.12 59.251L179.504 59.6324C187.337 67.4199 187.337 80.0459 179.504 87.8334L106.728 160.182C101.727 165.154 93.617 165.154 88.6152 160.182Z"/>
</svg>